<svg width="56" height="42" viewBox="0 0 56 42" fill="none" xmlns="http://www.w3.org/2000/svg">
<path d="M9.3367 8.86719H46.67M11.67 1.86719H44.3366M16.0939 39.2005H39.9129C42.3001 39.2005 43.4936 39.2005 44.4402 38.7535C45.2739 38.3596 45.9721 37.7275 46.4469 36.9372C46.9861 36.0398 47.1049 34.8521 47.3424 32.4768L48.3878 22.0244C48.601 19.8908 48.7077 18.824 48.3577 17.9994C48.0501 17.2751 47.5076 16.6757 46.8174 16.2975C46.0318 15.8672 44.9596 15.8672 42.8155 15.8672H13.1913C11.0471 15.8672 9.97501 15.8672 9.18935 16.2975C8.49922 16.6757 7.95663 17.2751 7.64912 17.9994C7.29907 18.824 7.40575 19.8908 7.61911 22.0244L8.66435 32.4768C8.90189 34.8521 9.02065 36.0398 9.55977 36.9372C10.0346 37.7275 10.7329 38.3596 11.5666 38.7535C12.5132 39.2005 13.7068 39.2005 16.0939 39.2005ZM35.0033 27.5339C35.0033 30.1113 31.8694 32.2005 28.0033 32.2005C24.1374 32.2005 21.0034 30.1113 21.0034 27.5339C21.0034 24.9565 24.1374 22.8672 28.0033 22.8672C31.8694 22.8672 35.0033 24.9565 35.0033 27.5339Z" stroke="#418D00" stroke-width="3" stroke-linecap="round" stroke-linejoin="round"/>
</svg>
