<svg width="50" height="50" viewBox="0 0 50 50" fill="none" xmlns="http://www.w3.org/2000/svg">
<path d="M45.8307 34.8751V9.72936C45.8307 7.22936 43.7891 5.37519 41.3099 5.58352H41.1849C36.8099 5.95852 30.1641 8.18769 26.4557 10.521L26.1016 10.7502C25.4974 11.1252 24.4974 11.1252 23.8932 10.7502L23.3724 10.4377C19.6641 8.12519 13.0391 5.91686 8.66406 5.56269C6.1849 5.35436 4.16406 7.22936 4.16406 9.70852V34.8751C4.16406 36.8751 5.78906 38.7501 7.78906 39.0001L8.39323 39.0834C12.9141 39.6876 19.8932 41.9793 23.8932 44.1668L23.9766 44.2084C24.5391 44.5209 25.4349 44.5209 25.9766 44.2084C29.9766 42.0001 36.9766 39.6876 41.5182 39.0834L42.2057 39.0001C44.2057 38.7501 45.8307 36.8751 45.8307 34.8751Z" stroke="#005C33" stroke-width="3" stroke-linecap="round" stroke-linejoin="round"/>
<path d="M25 11.4375V42.6875" stroke="#005C33" stroke-width="3" stroke-linecap="round" stroke-linejoin="round"/>
<path d="M16.1484 17.6875H11.4609" stroke="#005C33" stroke-width="3" stroke-linecap="round" stroke-linejoin="round"/>
<path d="M17.7109 23.9375H11.4609" stroke="#005C33" stroke-width="3" stroke-linecap="round" stroke-linejoin="round"/>
</svg>
