<svg width="60" height="60" viewBox="0 0 60 60" fill="none" xmlns="http://www.w3.org/2000/svg">
<path d="M40.607 35.1746C40.6073 36.6494 40.3134 38.1094 39.7426 39.4692C39.1718 40.829 38.3356 42.0614 37.2828 43.0941C36.23 44.1268 34.9818 44.9392 33.6112 45.4837C32.2406 46.0282 30.7752 46.2939 29.3008 46.2652C26.3497 46.1483 23.5606 44.885 21.5263 42.7439C19.492 40.6028 18.373 37.7528 18.407 34.7996V19.3496C18.4066 19.3277 18.4138 19.3063 18.4275 19.2892C18.4412 19.272 18.4605 19.2602 18.482 19.2559C22.2318 18.6904 26.0153 18.3772 29.807 18.3184C33.4402 18.3757 37.0648 18.689 40.6539 19.2559C40.6746 19.2604 40.6929 19.2725 40.705 19.2899C40.7172 19.3073 40.7224 19.3286 40.7195 19.3496L40.607 35.1746Z" stroke="#370390" stroke-width="3"/>
<path d="M18.4013 24.3754L8.4357 19.191C8.41985 19.1833 8.40648 19.1714 8.39713 19.1564C8.38777 19.1415 8.38281 19.1243 8.38281 19.1066C8.38281 19.089 8.38777 19.0718 8.39713 19.0569C8.40648 19.0419 8.41985 19.0299 8.4357 19.0223L29.5201 8.30664H29.6044L50.6232 18.9098C50.6391 18.9174 50.6524 18.9294 50.6618 18.9444C50.6711 18.9593 50.6761 18.9765 50.6761 18.9941C50.6761 19.0118 50.6711 19.029 50.6618 19.0439C50.6524 19.0589 50.6391 19.0708 50.6232 19.0785L40.7138 24.3754" stroke="#370390" stroke-width="3"/>
<path d="M18.4016 30.1777H16.5922C16.5922 30.1777 13.8359 30.1777 13.8359 34.4152C13.8359 38.3246 16.5828 38.3246 16.5828 38.3246L18.9359 38.2777" stroke="#370390" stroke-width="3"/>
<path d="M40.5937 30.6562H42.4031C42.4031 30.6562 45.2156 30.6562 45.2156 34.9031C45.2156 38.8125 42.4594 38.8125 42.4594 38.8125H39.9844" stroke="#370390" stroke-width="3"/>
<path d="M49.4219 42.2242V19.7148" stroke="#370390" stroke-width="3"/>
<path d="M49.4234 46.5656C50.6195 46.5656 51.5891 45.596 51.5891 44.4C51.5891 43.204 50.6195 42.2344 49.4234 42.2344C48.2274 42.2344 47.2578 43.204 47.2578 44.4C47.2578 45.596 48.2274 46.5656 49.4234 46.5656Z" stroke="#370390" stroke-width="3"/>
<path d="M35.4016 44.5586V51.7023H24.2734V44.9523" stroke="#370390" stroke-width="3"/>
<path d="M40.7188 28.2474C37.1274 27.5993 33.4837 27.2855 29.8344 27.3099C26.0031 27.234 22.174 27.5481 18.4062 28.2474" stroke="#370390" stroke-width="3"/>
</svg>
