<svg width="46" height="46" viewBox="0 0 46 46" fill="none" xmlns="http://www.w3.org/2000/svg">
<path d="M44.3714 25.4435H36.0454C35.7437 20.5942 31.9999 16.6698 27.224 16.085C29.5874 14.6606 31.1777 12.0791 31.1777 9.12858C31.1777 4.64701 27.5245 1 23.0339 1C18.5434 1 14.8914 4.64701 14.8914 9.12858C14.8914 12.0803 16.4805 14.6606 18.8439 16.085C14.068 16.6698 10.3242 20.5954 10.0225 25.4435H1.62857C1.2816 25.4435 1 25.7246 1 26.071V32.5543C1 32.9006 1.2816 33.1817 1.62857 33.1817H5.19006V44.3725C5.19006 44.7189 5.47166 45 5.81863 45H40.1814C40.5283 45 40.8099 44.7189 40.8099 44.3725V33.1817H44.3714C44.7184 33.1817 45 32.9006 45 32.5543V26.071C45 25.7246 44.7184 25.4435 44.3714 25.4435ZM16.1498 9.12858C16.1498 5.33851 19.2386 2.25499 23.0352 2.25499C26.833 2.25499 29.9218 5.33851 29.9218 9.12858C29.9218 12.9187 26.833 16.0022 23.0352 16.0022C19.2386 16.0022 16.1498 12.9187 16.1498 9.12858ZM20.0784 17.2572H25.992C30.6485 17.2572 34.4752 20.8753 34.7983 25.4435H11.2709C11.5939 20.8753 15.4207 17.2572 20.0784 17.2572ZM39.5528 43.745H6.4472V33.1817H39.5528V43.745ZM43.7429 31.9268H40.1814H5.81863H2.25714V26.6985H10.6197H35.4482H43.7429V31.9268Z" fill="#00758D" stroke="#00758D" stroke-width="2"/>
</svg>
