<svg width="25" height="24" viewBox="0 0 25 24" fill="none" xmlns="http://www.w3.org/2000/svg">
<path fill-rule="evenodd" clip-rule="evenodd" d="M13.9061 8.4C13.9061 7.73726 13.3688 7.2 12.7061 7.2C12.0433 7.2 11.5061 7.73726 11.5061 8.4V10.8H9.10606C8.44332 10.8 7.90605 11.3372 7.90605 12C7.90605 12.6628 8.44332 13.2 9.10606 13.2H11.5061V15.6C11.5061 16.2628 12.0433 16.8 12.7061 16.8C13.3688 16.8 13.9061 16.2628 13.9061 15.6V13.2H16.3061C16.9688 13.2 17.5061 12.6628 17.5061 12C17.5061 11.3372 16.9688 10.8 16.3061 10.8H13.9061V8.4ZM7.00614 0.465384C8.56459 0.11904 10.4552 0 12.7061 0C14.9569 0 16.8475 0.11904 18.4059 0.465384C19.9781 0.814764 21.2846 1.4112 22.2897 2.4163C23.2949 3.42139 23.8913 4.72802 24.2407 6.30008C24.587 7.85854 24.7061 9.74916 24.7061 12C24.7061 14.2508 24.587 16.1414 24.2407 17.6999C23.8913 19.272 23.2949 20.5786 22.2897 21.5837C21.2846 22.5888 19.9781 23.1852 18.4059 23.5346C16.8475 23.881 14.9569 24 12.7061 24C10.4552 24 8.56459 23.881 7.00614 23.5346C5.43408 23.1852 4.12745 22.5888 3.12235 21.5837C2.11725 20.5786 1.52082 19.272 1.17144 17.6999C0.825095 16.1414 0.706055 14.2508 0.706055 12C0.706055 9.74916 0.825095 7.85854 1.17144 6.30008C1.52082 4.72802 2.11725 3.42139 3.12235 2.4163C4.12745 1.4112 5.43408 0.814764 7.00614 0.465384Z" fill="#2180C3"/>
</svg>
