<svg width="22" height="24" viewBox="0 0 22 24" fill="none" xmlns="http://www.w3.org/2000/svg">
<rect x="3.70605" y="3" width="16" height="12" fill="#D9D9D9"/>
<path d="M17.0273 0H5.37272C2.80968 0 0.706055 2.08732 0.706055 4.6305V21.5331C0.706055 23.6924 2.26564 24.6041 4.17583 23.5604L10.0757 20.3095C10.7043 19.9616 11.7199 19.9616 12.3364 20.3095L18.2363 23.5604C20.1465 24.6161 21.7061 23.7044 21.7061 21.5331V4.6305C21.694 2.08732 19.6024 0 17.0273 0ZM15.5765 8.54123L10.7406 13.3397C10.5592 13.5197 10.3295 13.6036 10.0998 13.6036C9.87012 13.6036 9.64042 13.5197 9.45907 13.3397L7.64561 11.5403C7.29501 11.1924 7.29501 10.6166 7.64561 10.2687C7.99622 9.92083 8.57653 9.92083 8.92712 10.2687L10.0998 11.4323L14.295 7.26964C14.6456 6.92175 15.2259 6.92175 15.5765 7.26964C15.9271 7.61753 15.9271 8.19334 15.5765 8.54123Z" fill="#2180C3"/>
</svg>
