<svg width="20" height="28" viewBox="0 0 20 28" fill="none" xmlns="http://www.w3.org/2000/svg">
<g clip-path="url(#clip0_394_7674)">
<path d="M17.2763 24.3415L17.2752 24.3408L11.5858 21.1813C11.1007 20.907 10.5271 20.7997 10.0099 20.7997C9.49023 20.7997 8.91583 20.908 8.42829 21.1797C8.42807 21.1798 8.42785 21.1799 8.42763 21.1801L2.73904 24.3391C2.73849 24.3394 2.73795 24.3397 2.73741 24.34C2.00908 24.7406 1.56597 24.655 1.36344 24.5357C1.16152 24.4168 0.873047 24.0725 0.873047 23.2434V6.80509C0.873047 4.88236 2.44535 3.30176 4.37638 3.30176H15.623C17.5524 3.30176 19.1277 4.88123 19.138 6.80754V23.2434C19.138 24.081 18.8478 24.4266 18.6476 24.5445C18.448 24.6621 18.0065 24.7482 17.2763 24.3415Z" stroke="#7F7F7F" stroke-width="2" stroke-linecap="round" stroke-linejoin="round"/>
<path d="M7.1875 12.8024L8.93745 14.5524L13.6041 9.88574" stroke="#7F7F7F" stroke-width="2.5" stroke-linecap="round" stroke-linejoin="round"/>
</g>
<defs>
<clipPath id="clip0_394_7674">
<rect width="20" height="27" fill="white" transform="translate(0 0.03125)"/>
</clipPath>
</defs>
</svg>
