<svg width="24" height="25" viewBox="0 0 24 25" fill="none" xmlns="http://www.w3.org/2000/svg">
<rect y="0.181641" width="24" height="24" rx="12" fill="#C32129"/>
<path d="M7 17.1141V16.0051H8.33654V10.4883C8.33654 9.49397 8.64342 8.6148 9.25718 7.85079C9.87095 7.08679 10.6589 6.59815 11.621 6.38488V5.9242C11.621 5.66748 11.7108 5.44927 11.8903 5.26957C12.0699 5.08986 12.2879 5 12.5444 5C12.8008 5 13.0191 5.08986 13.1992 5.26957C13.3793 5.44927 13.4694 5.66748 13.4694 5.9242V6.38488C14.4315 6.59815 15.2194 7.08679 15.8332 7.85079C16.447 8.6148 16.7538 9.49397 16.7538 10.4883V16.0051H18.0904V17.1141H7ZM12.5439 19.19C12.176 19.19 11.8615 19.0591 11.6004 18.7974C11.3392 18.5357 11.2087 18.221 11.2087 17.8535H13.8817C13.8817 18.2222 13.7507 18.5371 13.4887 18.7983C13.2268 19.0594 12.9118 19.19 12.5439 19.19ZM9.44555 16.0051H15.6448V10.4883C15.6448 9.63236 15.3422 8.90176 14.737 8.29653C14.1317 7.69129 13.4011 7.38867 12.5452 7.38867C11.6892 7.38867 10.9586 7.69129 10.3534 8.29653C9.74817 8.90176 9.44555 9.63236 9.44555 10.4883V16.0051Z" fill="white"/>
</svg>
