<svg width="24" height="22" viewBox="0 0 24 22" fill="none" xmlns="http://www.w3.org/2000/svg">
<path d="M2.0234 4.75H21.9765M3.27047 1H20.7295M5.63488 21H18.3651C19.641 21 20.2789 21 20.7848 20.7605C21.2304 20.5495 21.6035 20.2109 21.8573 19.7875C22.1455 19.3068 22.209 18.6705 22.3359 17.398L22.8946 11.7985C23.0086 10.6555 23.0656 10.084 22.8786 9.64225C22.7142 9.25425 22.4242 8.93312 22.0554 8.7305C21.6355 8.5 21.0624 8.5 19.9165 8.5H4.08353C2.93754 8.5 2.36455 8.5 1.94465 8.7305C1.5758 8.93312 1.28581 9.25425 1.12145 9.64225C0.934368 10.084 0.991384 10.6555 1.10542 11.7985L1.66406 17.398C1.79101 18.6705 1.85448 19.3068 2.14262 19.7875C2.3964 20.2109 2.76964 20.5495 3.2152 20.7605C3.72109 21 4.35902 21 5.63488 21ZM15.7412 14.75C15.7412 16.1307 14.0662 17.25 12 17.25C9.9338 17.25 8.25877 16.1307 8.25877 14.75C8.25877 13.3693 9.9338 12.25 12 12.25C14.0662 12.25 15.7412 13.3693 15.7412 14.75Z" stroke="black" stroke-opacity="0.5" stroke-width="2" stroke-linecap="round" stroke-linejoin="round"/>
</svg>
