<svg width="60" height="60" viewBox="0 0 60 60" fill="none" xmlns="http://www.w3.org/2000/svg">
<rect width="60" height="60" rx="4" fill="#EDF8FF"/>
<path d="M19.0375 46.12C18.1887 46.12 17.4703 45.8259 16.8822 45.2378C16.2941 44.6497 16 43.9313 16 43.0825V20.5921C16 19.7433 16.2941 19.0248 16.8822 18.4367C17.4703 17.8486 18.1887 17.5545 19.0375 17.5545H21.3641V14H23.9492V17.5545H36.6809V14H39.2013V17.5545H41.5279C42.3767 17.5545 43.0952 17.8486 43.6833 18.4367C44.2714 19.0248 44.5655 19.7433 44.5655 20.5921V43.0825C44.5655 43.9313 44.2714 44.6497 43.6833 45.2378C43.0952 45.8259 42.3767 46.12 41.5279 46.12H19.0375ZM19.0375 43.5996H41.5279C41.6572 43.5996 41.7757 43.5457 41.8835 43.438C41.9912 43.3302 42.045 43.2117 42.045 43.0825V27.3134H18.5204V43.0825C18.5204 43.2117 18.5743 43.3302 18.682 43.438C18.7897 43.5457 18.9083 43.5996 19.0375 43.5996ZM18.5204 24.7929H42.045V20.5921C42.045 20.4628 41.9912 20.3443 41.8835 20.2365C41.7757 20.1288 41.6572 20.075 41.5279 20.075H19.0375C18.9083 20.075 18.7897 20.1288 18.682 20.2365C18.5743 20.3443 18.5204 20.4628 18.5204 20.5921V24.7929ZM30.2827 33.6468C29.8713 33.6468 29.5207 33.502 29.2309 33.2122C28.9412 32.9225 28.7963 32.5719 28.7963 32.1604C28.7963 31.749 28.9412 31.3984 29.2309 31.1086C29.5207 30.8189 29.8713 30.674 30.2827 30.674C30.6942 30.674 31.0448 30.8189 31.3345 31.1086C31.6243 31.3984 31.7692 31.749 31.7692 32.1604C31.7692 32.5719 31.6243 32.9225 31.3345 33.2122C31.0448 33.502 30.6942 33.6468 30.2827 33.6468ZM23.5614 33.6468C23.15 33.6468 22.7994 33.502 22.5096 33.2122C22.2199 32.9225 22.075 32.5719 22.075 32.1604C22.075 31.749 22.2199 31.3984 22.5096 31.1086C22.7994 30.8189 23.15 30.674 23.5614 30.674C23.9729 30.674 24.3235 30.8189 24.6132 31.1086C24.903 31.3984 25.0478 31.749 25.0478 32.1604C25.0478 32.5719 24.903 32.9225 24.6132 33.2122C24.3235 33.502 23.9729 33.6468 23.5614 33.6468ZM37.004 33.6468C36.5926 33.6468 36.242 33.502 35.9522 33.2122C35.6625 32.9225 35.5176 32.5719 35.5176 32.1604C35.5176 31.749 35.6625 31.3984 35.9522 31.1086C36.242 30.8189 36.5926 30.674 37.004 30.674C37.4155 30.674 37.7661 30.8189 38.0558 31.1086C38.3456 31.3984 38.4905 31.749 38.4905 32.1604C38.4905 32.5719 38.3456 32.9225 38.0558 33.2122C37.7661 33.502 37.4155 33.6468 37.004 33.6468ZM30.2827 40.2389C29.8713 40.2389 29.5207 40.094 29.2309 39.8043C28.9412 39.5145 28.7963 39.1639 28.7963 38.7525C28.7963 38.341 28.9412 37.9904 29.2309 37.7007C29.5207 37.4109 29.8713 37.266 30.2827 37.266C30.6942 37.266 31.0448 37.4109 31.3345 37.7007C31.6243 37.9904 31.7692 38.341 31.7692 38.7525C31.7692 39.1639 31.6243 39.5145 31.3345 39.8043C31.0448 40.094 30.6942 40.2389 30.2827 40.2389ZM23.5614 40.2389C23.15 40.2389 22.7994 40.094 22.5096 39.8043C22.2199 39.5145 22.075 39.1639 22.075 38.7525C22.075 38.341 22.2199 37.9904 22.5096 37.7007C22.7994 37.4109 23.15 37.266 23.5614 37.266C23.9729 37.266 24.3235 37.4109 24.6132 37.7007C24.903 37.9904 25.0478 38.341 25.0478 38.7525C25.0478 39.1639 24.903 39.5145 24.6132 39.8043C24.3235 40.094 23.9729 40.2389 23.5614 40.2389ZM37.004 40.2389C36.5926 40.2389 36.242 40.094 35.9522 39.8043C35.6625 39.5145 35.5176 39.1639 35.5176 38.7525C35.5176 38.341 35.6625 37.9904 35.9522 37.7007C36.242 37.4109 36.5926 37.266 37.004 37.266C37.4155 37.266 37.7661 37.4109 38.0558 37.7007C38.3456 37.9904 38.4905 38.341 38.4905 38.7525C38.4905 39.1639 38.3456 39.5145 38.0558 39.8043C37.7661 40.094 37.4155 40.2389 37.004 40.2389Z" fill="#2180C3"/>
</svg>
