<svg width="12" height="14" viewBox="0 0 12 14" fill="none" xmlns="http://www.w3.org/2000/svg">
<path d="M1.69588 3.78353V11.4382C1.69588 12.2069 2.319 12.83 3.08765 12.83H8.65471C9.42338 12.83 10.0465 12.2069 10.0465 11.4382V3.78353M1.69588 3.78353H1H1.69588ZM1.69588 3.78353H3.08765H1.69588ZM10.0465 3.78353H10.7424H10.0465ZM10.0465 3.78353H8.65471H10.0465ZM4.47941 6.56706V10.0465V6.56706ZM7.26294 6.56706V10.0465V6.56706ZM3.08765 3.78353V2.39176C3.08765 1.62311 3.71076 1 4.47941 1H7.26294C8.03161 1 8.65471 1.62311 8.65471 2.39176V3.78353M3.08765 3.78353H8.65471H3.08765Z" fill="#CF4343" fill-opacity="0.5"/>
<path d="M1.69588 3.78353V11.4382C1.69588 12.2069 2.319 12.83 3.08765 12.83H8.65471C9.42338 12.83 10.0465 12.2069 10.0465 11.4382V3.78353M1.69588 3.78353H1M1.69588 3.78353H3.08765M10.0465 3.78353H10.7424M10.0465 3.78353H8.65471M3.08765 3.78353V2.39176C3.08765 1.62311 3.71076 1 4.47941 1H7.26294C8.03161 1 8.65471 1.62311 8.65471 2.39176V3.78353M3.08765 3.78353H8.65471M4.47941 6.56706V10.0465M7.26294 6.56706V10.0465" stroke="white" stroke-linecap="round" stroke-linejoin="round"/>
</svg>
