<svg width="21" height="21" viewBox="0 0 21 21" fill="none" xmlns="http://www.w3.org/2000/svg">
<path d="M1.99876 20.94C1.44024 20.94 0.967479 20.7465 0.580487 20.3595C0.193496 19.9725 0 19.4998 0 18.9412V4.14208C0 3.58356 0.193496 3.1108 0.580487 2.72381C0.967479 2.33682 1.44024 2.14332 1.99876 2.14332H11.5693L9.91083 3.80183H1.99876C1.91369 3.80183 1.83571 3.83727 1.76482 3.90814C1.69394 3.97904 1.65851 4.05702 1.65851 4.14208V18.9412C1.65851 19.0263 1.69394 19.1043 1.76482 19.1752C1.83571 19.2461 1.91369 19.2815 1.99876 19.2815H16.7979C16.883 19.2815 16.961 19.2461 17.0319 19.1752C17.1027 19.1043 17.1382 19.0263 17.1382 18.9412V10.959L18.7967 9.30051V18.9412C18.7967 19.4998 18.6032 19.9725 18.2162 20.3595C17.8292 20.7465 17.3564 20.94 16.7979 20.94H1.99876ZM6.63414 14.3059V10.5104L16.6513 0.493304C16.8228 0.321774 17.0113 0.196674 17.2169 0.118004C17.4224 0.0393344 17.6315 0 17.8441 0C18.061 0 18.2694 0.0393344 18.4692 0.118004C18.6691 0.196674 18.8513 0.318227 19.0157 0.482661L20.4042 1.8669C20.5644 2.03841 20.6873 2.22765 20.7731 2.43462C20.8588 2.64157 20.9017 2.85135 20.9017 3.06398C20.9017 3.27662 20.8652 3.48288 20.7922 3.68275C20.7192 3.8826 20.597 4.06829 20.4254 4.23982L10.3764 14.3059H6.63414ZM8.29265 12.6474H9.6705L16.562 5.75589L15.873 5.06696L15.1352 4.35678L8.29265 11.1993V12.6474Z" fill="black" fill-opacity="0.5"/>
</svg>
