<svg width="24" height="24" viewBox="0 0 24 24" fill="none" xmlns="http://www.w3.org/2000/svg">
<g clip-path="url(#clip0_511_4263)">
<path d="M1.13086 12.2201C1.13086 9.7327 1.13086 8.48899 1.69521 7.45797C2.25956 6.42696 3.29059 5.78707 5.35263 4.50731L7.52654 3.15811C9.70628 1.80531 10.7962 1.12891 12.0004 1.12891C13.2047 1.12891 14.2946 1.80531 16.4743 3.15811L18.6483 4.5073C20.7103 5.78707 21.7413 6.42696 22.3056 7.45797C22.87 8.48899 22.87 9.7327 22.87 12.2201V13.8735C22.87 18.1135 22.87 20.2336 21.5965 21.5508C20.3231 22.868 18.2735 22.868 14.1743 22.868H9.82651C5.72734 22.868 3.67776 22.868 2.40431 21.5508C1.13086 20.2336 1.13086 18.1135 1.13086 13.8735V12.2201Z" stroke="black" stroke-opacity="0.5" stroke-width="2"/>
<path d="M12 15.2607V18.5216" stroke="black" stroke-opacity="0.5" stroke-width="2" stroke-linecap="round"/>
</g>
<defs>
<clipPath id="clip0_511_4263">
<rect width="24" height="24" fill="white"/>
</clipPath>
</defs>
</svg>
