<svg width="24" height="24" viewBox="0 0 24 24" fill="none" xmlns="http://www.w3.org/2000/svg">
<path d="M21.6954 21.6769L21.6953 21.6769C21.2615 22.1257 20.6553 22.4187 19.4947 22.5801C18.2937 22.7472 16.6992 22.75 14.4 22.75H9.6C7.30074 22.75 5.70631 22.7472 4.50528 22.5801C3.34467 22.4187 2.73848 22.1257 2.30459 21.6769L2.30456 21.6769C1.86498 21.2222 1.57401 20.5778 1.41531 19.3568C1.25248 18.1041 1.25 16.4447 1.25 14.07V12.2447C1.25 10.8485 1.25127 9.88692 1.3224 9.12999C1.39115 8.39833 1.51859 7.95456 1.71952 7.58747C1.91931 7.22248 2.21753 6.88613 2.78191 6.45391C3.36893 6.00436 4.16126 5.51097 5.31999 4.79184L4.66084 3.72976L5.31999 4.79183L7.71999 3.30232C8.94501 2.54205 9.78444 2.02289 10.4809 1.68419C11.1518 1.35794 11.5922 1.25 12 1.25C12.4078 1.25 12.8482 1.35794 13.5191 1.68419C14.2156 2.02289 15.055 2.54205 16.2801 3.30233L18.68 4.79183C19.8388 5.51097 20.6311 6.00435 21.2181 6.4539C21.7825 6.88612 22.0807 7.22246 22.2805 7.58747C22.4814 7.95455 22.6089 8.39833 22.6776 9.12998C22.7487 9.88692 22.75 10.8485 22.75 12.2447V14.07C22.75 16.4447 22.7475 18.1041 22.5847 19.3568C22.426 20.5778 22.135 21.2222 21.6954 21.6769Z" fill="#2180C3" stroke="#2180C3" stroke-width="2.5"/>
<path d="M11.7812 15.2729V18.5457" stroke="white" stroke-width="2" stroke-linecap="round"/>
</svg>
