<svg width="27" height="27" viewBox="0 0 27 27" fill="none" xmlns="http://www.w3.org/2000/svg">
<rect width="27" height="27" rx="13.5" fill="#2180C3"/>
<path fill-rule="evenodd" clip-rule="evenodd" d="M15.8706 8.37022C16.6324 7.60837 17.8676 7.60837 18.6294 8.37022C19.3913 9.13206 19.3913 10.3672 18.6294 11.1291L14.1868 15.5718C13.9465 15.8121 13.6454 15.9825 13.3157 16.065L11.1516 16.606C10.9386 16.6592 10.7133 16.5969 10.5581 16.4416C10.4028 16.2864 10.3404 16.061 10.3937 15.848L10.9347 13.684C11.0171 13.3543 11.1876 13.0532 11.4279 12.8129L15.8706 8.37022ZM17.7456 9.2541C17.4719 8.98041 17.0281 8.98041 16.7544 9.2541L12.3118 13.6968C12.2317 13.7769 12.1749 13.8772 12.1474 13.9871L11.859 15.1407L13.0126 14.8523C13.1224 14.8248 13.2228 14.768 13.3029 14.6879L17.7456 10.2452C18.0193 9.97152 18.0193 9.52778 17.7456 9.2541Z" fill="white"/>
<path fill-rule="evenodd" clip-rule="evenodd" d="M7.25 10.375C7.25 8.64911 8.64911 7.25 10.375 7.25H13.5C13.8452 7.25 14.125 7.52983 14.125 7.875C14.125 8.22018 13.8452 8.5 13.5 8.5H10.375C9.33947 8.5 8.5 9.33947 8.5 10.375V16.625C8.5 17.6606 9.33947 18.5 10.375 18.5H16.625C17.6606 18.5 18.5 17.6606 18.5 16.625V13.5C18.5 13.1548 18.7798 12.875 19.125 12.875C19.4702 12.875 19.75 13.1548 19.75 13.5V16.625C19.75 18.3509 18.3509 19.75 16.625 19.75H10.375C8.64911 19.75 7.25 18.3509 7.25 16.625V10.375Z" fill="white"/>
</svg>
