<svg width="23" height="23" viewBox="0 0 23 23" fill="none" xmlns="http://www.w3.org/2000/svg">
<path d="M20.708 12.9969L20.9276 10.663C21.1001 8.83012 21.1864 7.91366 20.8728 7.53481C20.7032 7.32988 20.4725 7.20431 20.2259 7.18265C19.7701 7.14261 19.1975 7.79435 18.0525 9.09785C17.4604 9.77197 17.1643 10.109 16.834 10.1612C16.6511 10.1901 16.4646 10.1604 16.2955 10.0754C15.9906 9.92185 15.7872 9.50519 15.3805 8.67181L13.2369 4.27914C12.4684 2.70438 12.0841 1.91699 11.4993 1.91699C10.9146 1.91699 10.5303 2.70438 9.76179 4.27915L7.61816 8.67182C7.21148 9.50519 7.00813 9.92185 6.70314 10.0754C6.53415 10.1604 6.34767 10.1901 6.16466 10.1612C5.83437 10.109 5.53829 9.77197 4.94614 9.09785C3.80113 7.79435 3.22862 7.14261 2.77275 7.18265C2.52615 7.20431 2.29549 7.32988 2.12588 7.53481C1.81232 7.91366 1.89857 8.83012 2.07108 10.663L2.29072 12.9969C2.65264 16.8423 2.8336 18.765 3.96693 19.9243C5.10028 21.0837 6.79889 21.0837 10.1961 21.0837H12.8026C16.1998 21.0837 17.8984 21.0837 19.0318 19.9243C20.1651 18.765 20.346 16.8423 20.708 12.9969Z" stroke="black" stroke-opacity="0.5" stroke-width="1.8"/>
<path d="M10.6815 12.0004C11.0457 11.3471 11.2277 11.0205 11.5 11.0205C11.7723 11.0205 11.9543 11.3471 12.3185 12.0004L12.4127 12.1695C12.5161 12.3551 12.5679 12.4478 12.6486 12.5091C12.7293 12.5703 12.8297 12.5931 13.0306 12.6386L13.2136 12.68C13.9207 12.84 14.2744 12.9199 14.3585 13.1905C14.4427 13.461 14.2015 13.7428 13.7195 14.3066L13.5947 14.4525C13.4578 14.6126 13.3893 14.6927 13.3584 14.7918C13.3276 14.8909 13.338 14.9978 13.3587 15.2116L13.3776 15.4061C13.4504 16.1583 13.4869 16.5344 13.2667 16.7016C13.0464 16.8687 12.7154 16.7164 12.0532 16.4115L11.882 16.3326C11.6938 16.246 11.5998 16.2027 11.5 16.2027C11.4002 16.2027 11.3062 16.246 11.118 16.3326L10.9468 16.4115C10.2846 16.7164 9.95363 16.8687 9.73331 16.7016C9.51312 16.5344 9.54956 16.1583 9.62243 15.4061L9.64131 15.2116C9.66201 14.9978 9.67236 14.8909 9.6416 14.7918C9.61074 14.6927 9.54225 14.6126 9.40525 14.4525L9.28053 14.3066C8.79843 13.7428 8.55739 13.461 8.64151 13.1905C8.72563 12.9199 9.07921 12.84 9.7864 12.68L9.96935 12.6386C10.1703 12.5931 10.2707 12.5703 10.3514 12.5091C10.4321 12.4478 10.4839 12.3551 10.5873 12.1695L10.6815 12.0004Z" stroke="black" stroke-opacity="0.5" stroke-width="1.8"/>
</svg>
