<svg width="20" height="20" viewBox="0 0 20 20" fill="none" xmlns="http://www.w3.org/2000/svg">
<path d="M2.12671 20C1.53244 20 1.02941 19.7941 0.617649 19.3824C0.205883 18.9706 0 18.4676 0 17.8733V2.12671C0 1.53244 0.205883 1.02941 0.617649 0.617649C1.02941 0.205883 1.53244 0 2.12671 0H10.0113V1.76468H2.12671C2.0362 1.76468 1.95323 1.80239 1.8778 1.8778C1.80239 1.95323 1.76468 2.0362 1.76468 2.12671V17.8733C1.76468 17.9638 1.80239 18.0468 1.8778 18.1222C1.95323 18.1976 2.0362 18.2353 2.12671 18.2353H10.0113V20H2.12671ZM14.9774 15.0226L13.7557 13.7466L16.62 10.8823H6.5837V9.11767H16.62L13.7557 6.2534L14.9774 4.97743L20 10L14.9774 15.0226Z" fill="black" fill-opacity="0.5"/>
</svg>
