<svg width="27" height="27" viewBox="0 0 27 27" fill="none" xmlns="http://www.w3.org/2000/svg">
<rect width="27" height="27" rx="13.5" fill="#92C321" fill-opacity="0.9"/>
<path d="M9.66667 12.3333H16.3333M9.66667 15H16.3333M19 19.6667L16.7838 18.5585C16.6158 18.4745 16.5318 18.4325 16.4437 18.4029C16.3656 18.3767 16.2851 18.3577 16.2035 18.3462C16.1115 18.3333 16.0175 18.3333 15.8297 18.3333H9.13333C8.38659 18.3333 8.01323 18.3333 7.72801 18.188C7.47713 18.0602 7.27315 17.8562 7.14533 17.6053C7 17.3201 7 16.9467 7 16.2V11.1333C7 10.3866 7 10.0132 7.14533 9.72801C7.27315 9.47713 7.47713 9.27315 7.72801 9.14533C8.01323 9 8.3866 9 9.13333 9H16.8667C17.6134 9 17.9868 9 18.272 9.14533C18.5229 9.27315 18.7269 9.47713 18.8547 9.72801C19 10.0132 19 10.3866 19 11.1333V19.6667Z" stroke="white" stroke-width="1.5" stroke-linecap="round" stroke-linejoin="round"/>
</svg>
