<svg width="25" height="24" viewBox="0 0 25 24" fill="none" xmlns="http://www.w3.org/2000/svg">
<path d="M12.3529 11.4947C10.7677 11.4947 9.41057 10.9319 8.28164 9.80642C7.15272 8.68089 6.58826 7.32787 6.58826 5.74736C6.58826 4.16683 7.15272 2.8138 8.28164 1.6883C9.41057 0.562766 10.7677 0 12.3529 0C13.9382 0 15.2953 0.562766 16.4242 1.6883C17.5532 2.8138 18.1176 4.16683 18.1176 5.74736C18.1176 7.32787 17.5532 8.68089 16.4242 9.80642C15.2953 10.9319 13.9382 11.4947 12.3529 11.4947ZM0 24V20.3495C0 19.5453 0.219087 18.8006 0.657261 18.1153C1.09541 17.4301 1.68084 16.9032 2.41357 16.5348C4.04163 15.739 5.68395 15.1421 7.34051 14.7443C8.99707 14.3464 10.6679 14.1474 12.3529 14.1474C14.038 14.1474 15.7088 14.3464 17.3654 14.7443C19.0219 15.1421 20.6642 15.739 22.2923 16.5348C23.025 16.9032 23.6105 17.4301 24.0486 18.1153C24.4868 18.8006 24.7059 19.5453 24.7059 20.3495V24H0Z" fill="#2180C3"/>
</svg>
