<svg width="18" height="14" viewBox="0 0 18 14" fill="none" xmlns="http://www.w3.org/2000/svg">
<path fill-rule="evenodd" clip-rule="evenodd" d="M1.86719 4.2C1.86719 1.88041 3.74759 0 6.06719 0C8.3868 0 10.2672 1.88041 10.2672 4.2C10.2672 6.51961 8.3868 8.4 6.06719 8.4C3.74759 8.4 1.86719 6.51961 1.86719 4.2Z" fill="black" fill-opacity="0.3"/>
<path d="M10.2916 6.59209C10.2465 6.67255 10.2656 6.77288 10.3431 6.82701C10.9189 7.22881 11.6314 7.46644 12.4027 7.46644C14.3163 7.46644 15.8676 6.00391 15.8676 4.19977C15.8676 2.39564 14.3163 0.933105 12.4027 0.933105C11.6314 0.933105 10.9189 1.17073 10.3431 1.57256C10.2656 1.62669 10.2465 1.72698 10.2916 1.80744C10.6914 2.52182 10.9177 3.33588 10.9177 4.19977C10.9177 5.06367 10.6914 5.87772 10.2916 6.59209Z" fill="black" fill-opacity="0.3"/>
<path fill-rule="evenodd" clip-rule="evenodd" d="M2.29709 9.98618C3.37149 9.48694 4.78118 9.3335 6.53312 9.3335C8.28658 9.3335 9.69728 9.48722 10.7721 9.98758C11.9428 10.5325 12.6544 11.4608 13.0274 12.7715C13.2022 13.3858 12.7712 14.0002 12.1772 14.0002H0.890712C0.296022 14.0002 -0.135915 13.3849 0.0394265 12.7695C0.412891 11.4586 1.12556 10.5306 2.29709 9.98618Z" fill="black" fill-opacity="0.3"/>
<path d="M10.594 8.43456C10.1816 8.45854 10.1573 8.97757 10.5363 9.13191C11.5747 9.55491 12.3566 10.1776 12.9174 10.9724C13.3775 11.6246 14.0921 12.1332 14.9266 12.1332H16.7004C17.4049 12.1332 17.9189 11.4775 17.6711 10.8369C17.6568 10.8 17.642 10.7635 17.6266 10.7272C17.2855 9.92034 16.7009 9.32638 15.8352 8.9478C15.0224 8.59236 14.0049 8.44567 12.8062 8.40134L12.7865 8.4006H12.7668C12.0608 8.4006 11.3233 8.3921 10.594 8.43456Z" fill="black" fill-opacity="0.3"/>
</svg>
