<svg width="26" height="25" viewBox="0 0 26 25" fill="none" xmlns="http://www.w3.org/2000/svg">
<path d="M12.634 11.7916C11.0126 11.7916 9.62466 11.2143 8.47005 10.0598C7.31545 8.90515 6.73814 7.51717 6.73814 5.89583C6.73814 4.27447 7.31545 2.88649 8.47005 1.73191C9.62466 0.577304 11.0126 0 12.634 0C14.2553 0 15.6433 0.577304 16.7979 1.73191C17.9525 2.88649 18.5298 4.27447 18.5298 5.89583C18.5298 7.51717 17.9525 8.90515 16.7979 10.0598C15.6433 11.2143 14.2553 11.7916 12.634 11.7916ZM0 24.62V20.8752C0 20.0502 0.224071 19.2863 0.672213 18.5833C1.12033 17.8803 1.71908 17.3399 2.46848 16.9619C4.13358 16.1456 5.81326 15.5333 7.50751 15.1252C9.20176 14.717 10.9106 14.5129 12.634 14.5129C14.3574 14.5129 16.0662 14.717 17.7604 15.1252C19.4547 15.5333 21.1344 16.1456 22.7995 16.9619C23.5489 17.3399 24.1476 17.8803 24.5957 18.5833C25.0439 19.2863 25.268 20.0502 25.268 20.8752V24.62H0ZM2.52676 22.0932H22.7412V20.8752C22.7412 20.534 22.6424 20.2181 22.4447 19.9276C22.2472 19.6372 21.9788 19.4001 21.6398 19.2166C20.1885 18.5017 18.7086 17.9602 17.2002 17.5919C15.6919 17.2237 14.1698 17.0396 12.634 17.0396C11.0982 17.0396 9.57609 17.2237 8.0677 17.5919C6.55931 17.9602 5.07948 18.5017 3.62819 19.2166C3.28912 19.4001 3.02079 19.6372 2.8232 19.9276C2.62557 20.2181 2.52676 20.534 2.52676 20.8752V22.0932ZM12.634 9.26491C13.5605 9.26491 14.3536 8.93502 15.0134 8.27524C15.6732 7.61547 16.003 6.82233 16.003 5.89583C16.003 4.96934 15.6732 4.1762 15.0134 3.51643C14.3536 2.85665 13.5605 2.52676 12.634 2.52676C11.7075 2.52676 10.9143 2.85665 10.2546 3.51643C9.59479 4.1762 9.2649 4.96934 9.2649 5.89583C9.2649 6.82233 9.59479 7.61547 10.2546 8.27524C10.9143 8.93502 11.7075 9.26491 12.634 9.26491Z" fill="black" fill-opacity="0.5"/>
</svg>
