<svg width="26" height="25" viewBox="0 0 26 25" fill="none" xmlns="http://www.w3.org/2000/svg">
<g clip-path="url(#clip0_889_4545)">
<path d="M10.4286 12.059L12.1282 10.3482L11.6839 8.79297H9.67315C9.67315 8.79297 9.21768 11.6146 12.4726 14.8585C15.7275 18.1023 18.5603 17.6801 18.5603 17.6801V15.6694L17.005 15.225L15.2943 16.9247" stroke="black" stroke-opacity="0.5" stroke-width="2.2" stroke-linecap="round" stroke-linejoin="round"/>
<path d="M23.9792 14.8582C23.7232 16.4135 23.1031 17.8862 22.1695 19.1562C21.2359 20.4262 20.0153 21.4574 18.6072 22.1658C17.1991 22.8741 15.6435 23.2396 14.0673 23.2322C12.4911 23.2249 10.939 22.845 9.53761 22.1235L4.11644 23.2344L5.22734 17.8132C4.50232 16.4067 4.12153 14.8481 4.11627 13.2657C4.111 11.6833 4.48143 10.1222 5.19707 8.71084C5.91272 7.29949 6.95315 6.07816 8.23281 5.14729C9.51247 4.21641 10.9948 3.60257 12.5579 3.35625C14.1211 3.10993 15.7204 3.23815 17.2243 3.73038C18.7282 4.22262 20.0938 5.06479 21.2088 6.18767C22.3238 7.31054 23.1563 8.68204 23.638 10.1894C24.1196 11.6967 24.2366 13.2969 23.9792 14.8582Z" stroke="black" stroke-opacity="0.5" stroke-width="2" stroke-linecap="round" stroke-linejoin="round"/>
</g>
<defs>
<clipPath id="clip0_889_4545">
<rect width="25" height="25" fill="white" transform="translate(0.706055)"/>
</clipPath>
</defs>
</svg>
