<svg width="25" height="24" viewBox="0 0 25 24" fill="none" xmlns="http://www.w3.org/2000/svg">
<g clip-path="url(#clip0_511_4297)">
<path d="M18.7061 12C22.0197 12 24.7061 9.3137 24.7061 6C24.7061 2.6863 22.0197 0 18.7061 0C15.3924 0 12.7061 2.6863 12.7061 6C12.7061 6.95981 12.9314 7.86698 13.3321 8.67149C13.4387 8.88528 13.4741 9.12964 13.4124 9.36037L13.055 10.696C12.8999 11.2758 13.4303 11.8062 14.0101 11.651L15.3457 11.2937C15.5765 11.232 15.8208 11.2674 16.0346 11.374C16.8391 11.7746 17.7463 12 18.7061 12Z" fill="#2180C3"/>
<path d="M7.95116 6.37921L8.72998 7.77473C9.43282 9.0341 9.15067 10.6862 8.04371 11.7932C8.04371 11.7932 6.70111 13.136 9.13547 15.5704C11.5691 18.004 12.9127 16.6622 12.9127 16.6622C14.0197 15.5552 15.6717 15.273 16.9311 15.9759L18.3266 16.7547C20.2284 17.816 20.4529 20.4828 18.7814 22.1544C17.777 23.1588 16.5465 23.9404 15.1863 23.9919C12.8966 24.0788 9.00799 23.4993 5.1073 19.5986C1.20661 15.6978 0.627109 11.8092 0.713917 9.51951C0.765481 8.15933 1.54702 6.92888 2.55143 5.92448C4.22297 4.25294 6.88986 4.47753 7.95116 6.37921Z" fill="#2180C3"/>
</g>
<defs>
<clipPath id="clip0_511_4297">
<rect width="24" height="24" fill="white" transform="translate(0.706055)"/>
</clipPath>
</defs>
</svg>
