<svg width="25" height="25" viewBox="0 0 25 25" fill="none" xmlns="http://www.w3.org/2000/svg">
<g clip-path="url(#clip0_394_7684)">
<path d="M14.2018 10.0086L14.2018 10.0089L13.9134 11.0866L14.9912 10.7982L14.9914 10.7982C15.4977 10.6628 16.0021 10.748 16.4131 10.9528L14.2018 10.0086ZM14.2018 10.0086C14.3371 9.50243 14.252 8.99801 14.0473 8.58699L14.2018 10.0086ZM18.75 11.5C21.6495 11.5 24 9.14949 24 6.25C24 3.35051 21.6495 1 18.75 1C15.8505 1 13.5 3.35051 13.5 6.25C13.5 7.09153 13.6972 7.88413 14.0471 8.58671L18.75 11.5ZM18.75 11.5C17.9085 11.5 17.1158 11.3027 16.4133 10.9528L18.75 11.5ZM13.8295 11.4001L13.8295 11.4001L13.8295 11.4001Z" stroke="black" stroke-opacity="0.5" stroke-width="2"/>
<path d="M6.93627 11.5777L6.9359 11.578L7.64339 12.2847C6.9359 11.578 6.93102 11.5829 6.92618 11.5879L6.91657 11.5979C6.91019 11.6047 6.90389 11.6115 6.89767 11.6185C6.88521 11.6324 6.8731 11.6468 6.86136 11.6615C6.83782 11.691 6.81601 11.7218 6.796 11.7537C6.75577 11.8178 6.72436 11.8838 6.70071 11.9498C6.65354 12.0813 6.64012 12.2038 6.64066 12.3028C6.64167 12.489 6.69213 12.6387 6.72795 12.7273C6.80025 12.9061 6.91984 13.0908 7.07163 13.2926C7.3875 13.7125 8.01732 14.4315 9.29288 15.7071L9.29289 15.7071C10.5681 16.9823 11.2871 17.6121 11.7071 17.9281C11.909 18.0799 12.0935 18.1994 12.2721 18.2718C12.3606 18.3076 12.5097 18.3579 12.6951 18.3593C12.7937 18.36 12.9157 18.347 13.0468 18.3005C13.1125 18.2772 13.1785 18.2462 13.2426 18.2063C13.2745 18.1865 13.3053 18.1649 13.3349 18.1415C13.3497 18.1299 13.364 18.1178 13.378 18.1055C13.385 18.0993 13.3919 18.093 13.3987 18.0867L13.4087 18.0771C13.4137 18.0723 13.4186 18.0674 12.7153 17.3566L13.4186 18.0675L13.4224 18.0637C14.2966 17.1895 15.5367 17.0255 16.4138 17.515L17.8674 18.3262L17.8674 18.3262C19.1665 19.0512 19.4797 21.0122 18.1214 22.3706C17.1574 23.3347 16.1017 23.9525 15.0458 23.9925L15.0457 23.9925C12.891 24.0742 9.12669 23.5432 5.29174 19.7083C1.4568 15.8733 0.925782 12.109 1.00747 9.95425L0.0081901 9.91636L1.00747 9.95424C1.0475 8.89833 1.66532 7.84269 2.62937 6.87865L2.62937 6.87864C3.98773 5.52029 5.94878 5.83348 6.67377 7.13254C6.67377 7.13254 6.67377 7.13254 6.67377 7.13254L7.48504 8.5862L8.35825 8.09887L7.48504 8.58621C7.97453 9.46329 7.8105 10.7034 6.93627 11.5777Z" stroke="black" stroke-opacity="0.5" stroke-width="2"/>
</g>
<defs>
<clipPath id="clip0_394_7684">
<rect width="25" height="25" fill="white"/>
</clipPath>
</defs>
</svg>
