<svg width="23" height="23" viewBox="0 0 23 23" fill="none" xmlns="http://www.w3.org/2000/svg">
<path d="M21.5691 13.1239C21.3131 14.6791 20.6929 16.1519 19.7593 17.4218C18.8257 18.6918 17.6051 19.723 16.197 20.4314C14.789 21.1398 13.2334 21.5052 11.6572 21.4978C10.081 21.4905 8.52885 21.1106 7.12745 20.3891L1.70629 21.5L2.81718 16.0788C2.09217 14.6723 1.71137 13.1137 1.70611 11.5313C1.70085 9.94888 2.07127 8.38782 2.78691 6.97647C3.50256 5.56511 4.54299 4.34379 5.82265 3.41291C7.10231 2.48203 8.58465 1.8682 10.1478 1.62187C11.7109 1.37555 13.3102 1.50378 14.8141 1.99601C16.318 2.48824 17.6836 3.33042 18.7986 4.45329C19.9136 5.57617 20.7462 6.94766 21.2278 8.45501C21.7094 9.96236 21.8264 11.5625 21.5691 13.1239Z" fill="#2180C3" stroke="#2180C3" stroke-width="2" stroke-linecap="round" stroke-linejoin="round"/>
<path d="M8.0184 10.3246L9.71807 8.61385L9.27371 7.05859H7.26299C7.26299 7.05859 6.80752 9.88027 10.0624 13.1241C13.3174 16.3679 16.1501 15.9457 16.1501 15.9457V13.935L14.5949 13.4907L12.8841 15.1903" stroke="white" stroke-width="2.2" stroke-linecap="round" stroke-linejoin="round"/>
</svg>
